<?xml version="1.0" standalone="no"?><!DOCTYPE svg PUBLIC "-//W3C//DTD SVG 1.1//EN" "http://www.w3.org/Graphics/SVG/1.1/DTD/svg11.dtd"><svg t="1628676713968" class="icon" viewBox="0 0 1024 1024" version="1.1" xmlns="http://www.w3.org/2000/svg" p-id="6144" xmlns:xlink="http://www.w3.org/1999/xlink" width="32" height="32"><defs><style type="text/css"></style></defs><path d="M913.311527 384.088772 732.144374 384.088772c-23.112394 0-41.807175-18.726503-41.807175-41.809221 0-23.080671 18.695804-41.807175 41.807175-41.807175l72.727395 0c-65.60416-92.700285-173.48417-153.296385-295.703769-153.296385-200.113667 0-362.338399 162.224732-362.338399 362.336352 0 200.112644 162.224732 362.337375 362.338399 362.337375 200.112644 0 362.337375-162.224732 362.337375-362.337375 0-23.080671 18.694781-41.807175 41.806151-41.807175 23.082718 0 41.810245 18.726503 41.810245 41.807175 0 246.292406-199.679785 445.953771-445.953771 445.953771-246.277056 0-445.954795-199.661366-445.954795-445.953771 0-246.291382 199.677738-445.952748 445.954795-445.952748 149.46922 0 281.489022 73.692373 362.337375 186.596815l0-75.108628c0-23.082718 18.694781-41.808198 41.806151-41.808198 23.082718 0 41.810245 18.72548 41.810245 41.808198l0 167.231769C955.121771 365.362268 936.393221 384.088772 913.311527 384.088772z" p-id="6145"></path></svg>