<?xml version="1.0" standalone="no"?><!DOCTYPE svg PUBLIC "-//W3C//DTD SVG 1.1//EN" "http://www.w3.org/Graphics/SVG/1.1/DTD/svg11.dtd"><svg t="1628760512614" class="icon" viewBox="0 0 1024 1024" version="1.1" xmlns="http://www.w3.org/2000/svg" p-id="1530" xmlns:xlink="http://www.w3.org/1999/xlink" width="32" height="32"><defs><style type="text/css"></style></defs><path d="M512 1024C229.216 1024 0 794.784 0 512S229.216 0 512 0s512 229.216 512 512-229.216 512-512 512z m-151.584-616.704a151.296 151.296 0 1 0 302.592 0 151.296 151.296 0 0 0-302.592 0z m287.776 150.432a26.784 26.784 0 0 0-37.504 2.56c-25.536 27.36-60.64 44.48-99.744 44.48s-74.208-17.12-99.712-44.48c-10.4-11.104-26.336-12.8-37.504-2.56-43.104 39.328-75.008 89.76-85.376 158.976C284.352 744.96 302.72 768 329.824 768h364.64c26.304 0 45.44-23.072 41.472-51.296-11.168-69.216-43.072-119.68-87.744-158.976z" p-id="1531"></path></svg>